#!OML:ASF F:\VICON\USERDATA\INSTALL\rory3\rory3.ASF
:FULLY-SPECIFIED
:DEGREES
193
root -6.31533 15.0725 0.536198 13.4465 0.175024 -5.38209
lowerback 28.0418 -0.475329 3.10439
upperback 6.462 0.728123 4.66906
thorax -8.28546 0.304708 3.1844
lowerneck -16.9855 10.2577 -2.06503
upperneck 9.08143 15.6485 -9.83854
head 6.18383 6.7804 -1.14344
rclavicle -7.55382e-015 4.53229e-014
rhumerus -32.6989 -30.6684 -58.1259
rradius 60.6291
rwrist 14.987
rhand -36.6973 -16.4359
rfingers 7.12502
rthumb -9.78263 -46.1887
lclavicle -7.55382e-015 4.53229e-014
lhumerus 5.5846 23.4749 65.3872
lradius 61.7871
lwrist -12.7427
lhand -30.4321 54.2461
lfingers 7.12502
lthumb -3.73477 84.1932
rfemur -26.908 0.967012 12.6934
rtibia 79.3599
rfoot -2.82267 19.1469
rtoes -0.455445
lfemur -64.7072 4.35741 -16.7032
ltibia 83.2167
lfoot -17.2789 -9.52337
ltoes -21.4465
194
root -6.32313 15.1011 0.591996 13.4315 0.472739 -5.22383
lowerback 27.9997 -0.376242 2.7967
upperback 6.38078 0.770824 4.64366
thorax -8.36239 0.331775 3.3197
lowerneck -16.7851 10.2209 -1.92404
upperneck 9.01649 15.5579 -9.89253
head 6.14194 6.74833 -1.20114
rclavicle -3.18055e-015 3.81667e-014
rhumerus -32.834 -30.6222 -57.9776
rradius 60.7287
rwrist 15.0066
rhand -36.2972 -16.2811
rfingers 7.12502
rthumb -9.39657 -46.0516
lclavicle -3.18055e-015 3.81667e-014
lhumerus 5.36019 23.4657 65.312
lradius 61.5875
lwrist -12.8149
lhand -30.371 54.1983
lfingers 7.12502
lthumb -3.67574 84.1463
rfemur -27.296 0.790585 12.7091
rtibia 79.9933
rfoot -0.516621 18.9193
rtoes 0.676181
lfemur -64.3049 4.15011 -16.8421
ltibia 82.8991
lfoot -17.4183 -9.49765
ltoes -21.501
195
root -6.32312 15.1233 0.646164 13.4801 0.813077 -5.17356
lowerback 27.8634 -0.346235 2.78308
upperback 6.27979 0.802308 4.60803
thorax -8.41002 0.348259 3.27589
lowerneck -15.6569 10.2357 -1.41215
upperneck 7.97462 15.3873 -10.549
head 5.71491 6.74009 -1.56959
rclavicle -7.95139e-015 -5.48646e-014
rhumerus -33.0669 -30.5183 -57.815
rradius 60.9413
rwrist 14.94
rhand -36.5023 -15.5134
rfingers 7.12502
rthumb -9.59444 -45.2749
lclavicle -7.95139e-015 -5.48646e-014
lhumerus 4.6897 23.0153 65.0106
lradius 62.0968
lwrist -12.4739
lhand -30.1256 54.368
lfingers 7.12502
lthumb -3.43873 84.32
rfemur -27.4397 0.564077 12.801
rtibia 80.5761
rfoot -0.105562 18.7299
rtoes 2.66091
lfemur -64.0175 3.88935 -16.9051
ltibia 82.6277
lfoot -17.4762 -9.39101
ltoes -21.3998
196
root -6.32843 15.159 0.701568 13.5192 1.11685 -5.22395
lowerback 27.7189 -0.280132 2.76592
upperback 6.21453 0.876132 4.5761
thorax -8.41468 0.384376 3.22305
lowerneck -16.3174 10.0582 -1.83971
upperneck 8.67608 15.2591 -9.9132
head 5.9523 6.64325 -1.28458
rclavicle -5.1684e-015 -2.78299e-014
rhumerus -33.0523 -30.6216 -57.8244
rradius 60.9072
rwrist 15.0928
rhand -36.8048 -14.0155
rfingers 7.12502
rthumb -9.88636 -43.7633
lclavicle -5.1684e-015 -2.78299e-014
lhumerus 4.12965 22.5703 64.6762
lradius 62.6699
lwrist -12.4489
lhand -29.6517 51.5757
lfingers 7.12502
lthumb -2.98109 81.5346
rfemur -28.0133 0.326573 13.1389
rtibia 81.2543
rfoot 2.11877 17.9063
rtoes 6.33788
lfemur -63.6878 3.74841 -16.8484
ltibia 82.2297
lfoot -17.4302 -9.37111
ltoes -21.3169
197
root -6.34119 15.1563 0.747319 13.5377 1.61847 -5.14202
lowerback 27.6767 -0.26073 2.6339
upperback 6.13479 0.87217 4.59651
thorax -8.48621 0.387104 3.3245
lowerneck -16.56 10.0307 -1.74934
upperneck 8.91415 15.2448 -9.9219
head 6.07516 6.61457 -1.28355
rclavicle -2.10712e-014 -3.49861e-014
rhumerus -33.0431 -30.6595 -57.6554
rradius 60.8546
rwrist 15.1138
rhand -36.6944 -12.9776
rfingers 7.12502
rthumb -9.77977 -42.7305
lclavicle -2.10712e-014 -3.49861e-014
lhumerus 3.63149 22.4306 64.5128
lradius 62.9383
lwrist -12.6452
lhand -28.6288 46.16
lfingers 7.12502
lthumb -1.99317 76.1304
rfemur -27.3627 -0.807795 13.5687
rtibia 82.0896
rfoot -2.30197 17.5279
rtoes -16.6801
lfemur -63.6275 3.39528 -16.8705
ltibia 81.9958
lfoot -17.319 -9.36079
ltoes -21.3048
198
root -6.34223 15.243 0.815193 13.5064 2.13466 -5.04406
lowerback 27.6251 -0.278192 2.50388
upperback 6.0701 0.822161 4.63351
thorax -8.53409 0.368402 3.45887
lowerneck -16.3852 10.0765 -1.60032
upperneck 8.63682 15.2729 -10.1787
head 5.99309 6.6373 -1.39347
rclavicle 7.95139e-015 2.70347e-014
rhumerus -33.1765 -30.6284 -57.4167
rradius 60.8518
rwrist 15.2044
rhand -36.7757 -13.4151
rfingers 7.12502
rthumb -9.8582 -43.1643
lclavicle 7.95139e-015 2.70347e-014
lhumerus 3.35132 22.488 64.4134
lradius 62.7668
lwrist -13.0982
lhand -29.1909 49.4664
lfingers 7.12502
lthumb -2.53604 79.4311
rfemur -29.1971 -0.646919 13.6291
rtibia 82.8355
rfoot 6.52266 16.5982
rtoes 11.4186
lfemur -62.7943 2.88695 -16.8962
ltibia 81.2884
lfoot -17.4995 -9.15804
ltoes -21.2089
199
root -6.34254 15.285 0.877754 13.2861 2.33551 -4.98797
lowerback 27.6044 -0.18898 2.41227
upperback 6.15617 0.900524 4.58034
thorax -8.43069 0.406929 3.42274
lowerneck -15.7634 10.0725 -1.28574
upperneck 7.91252 15.1422 -10.5578
head 5.71153 6.62416 -1.6134
rclavicle 5.1684e-015 1.94809e-014
rhumerus -33.1318 -30.733 -57.3157
rradius 60.6682
rwrist 15.3784
rhand -36.9692 -14.097
rfingers 7.12502
rthumb -10.0449 -43.8373
lclavicle 5.1684e-015 1.94809e-014
lhumerus 3.37619 22.575 64.4296
lradius 62.3115
lwrist -13.326
lhand -30.0657 48.8182
lfingers 7.12502
lthumb -3.38093 78.7711
rfemur -29.74 -0.884646 13.8682
rtibia 83.7248
rfoot 7.91332 16.0341
rtoes 12.6068
lfemur -61.9309 2.61788 -16.9092
ltibia 80.8864
lfoot -17.6171 -8.8992
ltoes -20.7768
200
root -6.34396 15.3168 0.928109 13.2281 2.75193 -4.85892
lowerback 27.5238 -0.187823 2.44534
upperback 6.17955 0.896981 4.4701
thorax -8.36158 0.404989 3.27844
lowerneck -15.0471 9.94096 -0.832969
upperneck 7.14381 14.8001 -10.9019
head 5.39747 6.52007 -1.86992
rclavicle 9.54166e-015 -3.53837e-014
rhumerus -33.0784 -30.8286 -57.3983
rradius 60.7182
rwrist 15.2822
rhand -36.7478 -14.106
rfingers 7.12502
rthumb -9.8313 -43.8564
lclavicle 9.54166e-015 -3.53837e-014
lhumerus 3.31076 22.8965 64.3366
lradius 61.7897
lwrist -13.1371
lhand -30.5328 49.499
lfingers 7.12502
lthumb -3.83195 79.4443
rfemur -30.4156 -1.3815 14.0654
rtibia 84.6912
rfoot 9.40788 15.4745
rtoes 13.69
lfemur -61.3808 2.15871 -16.9683
ltibia 80.4806
lfoot -17.5719 -8.73678
ltoes -20.6842
201
root -6.34806 15.3501 0.97185 13.3376 3.20526 -4.72269
lowerback 27.45 -0.172138 2.44306
upperback 6.06436 0.913896 4.39334
thorax -8.45419 0.414303 3.18837
lowerneck -16.4904 9.80426 -1.86173
upperneck 8.83215 14.8733 -9.4016
head 5.96778 6.47978 -1.15953
rclavicle 3.57812e-015 -2.3059e-014
rhumerus -33.1559 -31.0178 -57.2764
rradius 60.7065
rwrist 15.4428
rhand -36.7312 -13.5227
rfingers 7.12502
rthumb -9.81534 -43.274
lclavicle 3.57812e-015 -2.3059e-014
lhumerus 3.06288 22.6551 64.2706
lradius 62.0166
lwrist -12.8819
lhand -30.8886 54.2437
lfingers 7.12502
lthumb -4.17555 84.1825
rfemur -31.4672 -2.01018 14.3184
rtibia 85.7421
rfoot 11.2049 14.8227
rtoes 14.5648
lfemur -61.1113 1.63828 -17.0057
ltibia 80.1002
lfoot -17.5164 -8.57416
ltoes -20.7904
202
root -6.34811 15.3996 1.03497 13.2034 3.29332 -4.59644
lowerback 27.5106 -0.081785 2.25175
upperback 6.04588 0.970906 4.29316
thorax -8.50912 0.444735 3.16801
lowerneck -16.9878 9.81568 -2.25709
upperneck 9.46245 14.9851 -8.8399
head 6.1773 6.50953 -0.883095
rclavicle 3.57812e-015 -1.98785e-014
rhumerus -33.1696 -30.9665 -57.3013
rradius 60.7296
rwrist 15.5283
rhand -36.6863 -13.8399
rfingers 7.12502
rthumb -9.77202 -43.5932
lclavicle 3.57812e-015 -1.98785e-014
lhumerus 2.61223 22.4597 63.9872
lradius 62.2979
lwrist -12.8194
lhand -31.618 58.0745
lfingers 7.12502
lthumb -4.8799 87.9983
rfemur -32.3128 -2.31785 14.5115
rtibia 86.7054
rfoot 12.8499 13.7609
rtoes 16.8292
lfemur -60.38 1.34569 -17.0739
ltibia 79.6528
lfoot -17.5605 -8.37143
ltoes -20.7426
203
root -6.35364 15.4427 1.09274 13.1163 3.55318 -4.47894
lowerback 27.5041 -0.0108479 2.02624
upperback 6.02523 1.00268 4.3013
thorax -8.53467 0.465429 3.29704
lowerneck -17.2154 9.85435 -2.31243
upperneck 9.76655 15.0893 -8.79737
head 6.30835 6.53499 -0.831579
rclavicle 6.36111e-015 -1.55052e-014
rhumerus -33.3697 -30.6005 -57.2038
rradius 61.0627
rwrist 15.2327
rhand -36.5296 -15.1934
rfingers 7.12502
rthumb -9.62083 -44.9537
lclavicle 6.36111e-015 -1.55052e-014
lhumerus 2.20334 22.6726 63.8233
lradius 62.1985
lwrist -13.0832
lhand -31.689 56.7917
lfingers 7.12502
lthumb -4.94845 86.7139
rfemur -33.1496 -2.82125 14.8153
rtibia 87.7092
rfoot 14.0693 12.8973
rtoes 18.64
lfemur -59.7935 0.938582 -17.0586
ltibia 79.2443
lfoot -17.5638 -8.33793
ltoes -20.3147
